<svg width="31" height="30" viewBox="0 0 31 30" fill="none" xmlns="http://www.w3.org/2000/svg">
<path fill-rule="evenodd" clip-rule="evenodd" d="M18.5806 19.3075C16.8394 20.6539 14.6316 21.3039 12.4106 21.1242C10.1896 20.9444 8.12398 19.9485 6.63806 18.3409C5.15214 16.7333 4.35869 14.6362 4.42067 12.4801C4.48266 10.3241 5.39536 8.27284 6.97134 6.7477C8.54732 5.22256 10.6669 4.33929 12.8948 4.27931C15.1227 4.21933 17.2898 4.98718 18.951 6.42516C20.6121 7.86315 21.6413 9.8621 21.827 12.0115C22.0128 14.1608 21.3411 16.2975 19.9498 17.9825L26.6096 24.4263C26.7048 24.5121 26.7812 24.6156 26.8341 24.7306C26.8871 24.8456 26.9155 24.9697 26.9178 25.0956C26.9201 25.2215 26.8962 25.3465 26.8475 25.4632C26.7987 25.58 26.7262 25.686 26.6342 25.7751C26.5422 25.8641 26.4327 25.9343 26.312 25.9814C26.1914 26.0286 26.0622 26.0517 25.9321 26.0495C25.8021 26.0473 25.6738 26.0197 25.5549 25.9685C25.4361 25.9172 25.3292 25.8434 25.2405 25.7513L18.5806 19.3075ZM8.34418 17.355C7.39615 16.4375 6.75046 15.2685 6.48872 13.996C6.22697 12.7234 6.36092 11.4043 6.87363 10.2054C7.38635 9.00646 8.25481 7.98153 9.36926 7.26013C10.4837 6.53873 11.7941 6.15323 13.1349 6.15236C14.4757 6.15148 15.7867 6.53527 16.9021 7.25522C18.0176 7.97517 18.8875 8.99897 19.4019 10.1972C19.9162 11.3955 20.052 12.7144 19.7921 13.9873C19.5321 15.2602 18.888 16.43 17.9413 17.3487L17.9348 17.355L17.9283 17.36C16.6562 18.5883 14.9322 19.2777 13.1352 19.2767C11.3382 19.2758 9.61498 18.5846 8.34418 17.355Z" fill="#ffffff"/>
</svg>
